<?xml version="1.0" encoding="UTF-8" standalone="no"?>
<!-- Created with Inkscape (http://www.inkscape.org/) -->

<svg
   xmlns:dc="http://purl.org/dc/elements/1.1/"
   xmlns:cc="http://creativecommons.org/ns#"
   xmlns:rdf="http://www.w3.org/1999/02/22-rdf-syntax-ns#"
   xmlns:svg="http://www.w3.org/2000/svg"
   xmlns="http://www.w3.org/2000/svg"
   xmlns:sodipodi="http://sodipodi.sourceforge.net/DTD/sodipodi-0.dtd"
   xmlns:inkscape="http://www.inkscape.org/namespaces/inkscape"
   version="1.1"
   id="svg869"
   width="300"
   height="300"
   viewBox="0 0 300 300"
   sodipodi:docname="blogy-logo-3.svg"
   inkscape:version="0.92.3 (2405546, 2018-03-11)">
  <metadata
     id="metadata875">
    <rdf:RDF>
      <cc:Work
         rdf:about="">
        <dc:format>image/svg+xml</dc:format>
        <dc:type
           rdf:resource="http://purl.org/dc/dcmitype/StillImage" />
        <dc:title></dc:title>
      </cc:Work>
    </rdf:RDF>
  </metadata>
  <defs
     id="defs873" />
  <sodipodi:namedview
     pagecolor="#ffffff"
     bordercolor="#666666"
     borderopacity="1"
     objecttolerance="10"
     gridtolerance="10"
     guidetolerance="10"
     inkscape:pageopacity="0"
     inkscape:pageshadow="2"
     inkscape:window-width="1366"
     inkscape:window-height="742"
     id="namedview871"
     showgrid="false"
     inkscape:zoom="1.0839844"
     inkscape:cx="255.25123"
     inkscape:cy="173.51328"
     inkscape:window-x="0"
     inkscape:window-y="0"
     inkscape:window-maximized="1"
     inkscape:current-layer="svg869" />
  <rect
     style="opacity:1;fill:#f61c59;fill-opacity:1;fill-rule:nonzero;stroke:#ffffff;stroke-width:0;stroke-linecap:square;stroke-linejoin:round;stroke-miterlimit:4;stroke-dasharray:none;stroke-dashoffset:0;stroke-opacity:1;paint-order:markers fill stroke"
     id="rect881"
     width="300"
     height="300"
     x="0.92252922"
     y="0.18019618" />
  <g
     id="g4649"
     transform="translate(-116.23784,-75.466665)">
    <path
       id="path4644"
       d="m 292.57422,133.24805 c -3.70333,0 -7.34215,2.71222 -8.9961,5.30664 -1.65394,2.59441 -2.55751,5.30926 -3.65429,8.6875 a 6.3452246,6.3452246 0 0 0 -0.0215,0.0684 l -45.8457,146.84765 a 6.3452246,6.3452246 0 0 0 -0.0391,0.13282 c -0.55565,1.92785 -0.99805,3.94226 -0.99805,6.22656 0,3.32042 0.87852,6.39462 2.65235,8.98047 1.77382,2.58585 4.82715,4.96289 8.80078,4.96289 3.82404,0 7.47391,-2.77838 9.11914,-5.40821 1.64522,-2.62982 2.47564,-5.33354 3.42382,-8.50585 l -0.0215,0.0742 46.14453,-147.74023 -0.043,0.13086 c 0.58643,-1.74398 1.08203,-3.75447 1.08203,-6.04492 0,-3.39531 -0.98491,-6.53366 -2.86914,-9.06641 -1.88422,-2.53275 -4.9363,-4.65234 -8.73437,-4.65234 z m -83.96094,34.19726 c -3.93931,0 -6.83533,1.84357 -9.64648,3.9336 l 0.20898,-0.15039 -58.32226,39.78515 0.0234,-0.0137 c -2.3863,1.61288 -4.69289,2.88274 -6.89843,5.47656 -2.20555,2.59383 -3.40821,6.44764 -3.40821,10.28321 0,3.94497 1.32969,7.81885 3.54102,10.39257 2.21132,2.57373 4.54291,3.87775 6.78125,5.38086 l 58.24414,40.40039 a 6.3452246,6.3452246 0 0 0 0.15625,0.10547 c 2.36152,1.53629 4.8971,3.70703 9.32031,3.70703 3.38922,0 6.92676,-1.95737 8.75781,-4.61718 1.83106,-2.65981 2.39649,-5.63241 2.39649,-8.6543 0,-6.46062 -4.1053,-11.86807 -8.76563,-15.06641 l 0.0723,0.0488 -44.52734,-31.47265 44.52734,-31.47461 -0.0723,0.0488 c 2.26205,-1.55241 4.44396,-3.2939 6.14649,-5.82617 1.70253,-2.53226 2.61914,-5.78532 2.61914,-9.01562 0,-3.0219 -0.56543,-5.99449 -2.39649,-8.6543 -1.83106,-2.65981 -5.3686,-4.61719 -8.75781,-4.61719 z m 117.71484,0 c -3.3892,0 -6.92675,1.95738 -8.75781,4.61719 -1.83105,2.65981 -2.39648,5.63241 -2.39648,8.6543 0,3.30238 1.00809,6.59998 2.75586,9.10547 1.74777,2.50548 3.93178,4.20567 6.16211,5.73632 l -0.0937,-0.0645 44.41992,31.68164 -44.32617,31.23242 c -4.59691,3.15482 -8.91797,8.46164 -8.91797,15.06641 0,3.02188 0.56543,5.99448 2.39648,8.6543 1.83106,2.65981 5.3686,4.61718 8.75781,4.61718 3.93927,0 6.8353,-1.84351 9.64649,-3.93359 l -0.20899,0.15039 58.32227,-39.78516 -0.0234,0.0137 c 2.38677,-1.61321 4.69322,-2.88422 6.89844,-5.47852 2.20522,-2.5943 3.4082,-6.44763 3.4082,-10.2832 0,-3.94497 -1.33134,-7.81932 -3.54297,-10.39258 -2.21162,-2.57326 -4.54145,-3.87613 -6.77929,-5.37891 l -58.24414,-40.40039 a 6.3452246,6.3452246 0 0 0 -0.15625,-0.10547 c -2.36151,-1.53627 -4.89708,-3.70703 -9.32032,-3.70703 z"
       style="font-style:italic;font-variant:normal;font-weight:normal;font-stretch:normal;font-size:183.29333496px;line-height:1.25;font-family:'Courier 10 Pitch';-inkscape-font-specification:'Courier 10 Pitch, Italic';font-variant-ligatures:normal;font-variant-caps:normal;font-variant-numeric:normal;font-feature-settings:normal;text-align:start;letter-spacing:0px;word-spacing:2.8748157px;writing-mode:lr-tb;text-anchor:start;fill:#501616;fill-opacity:1;stroke:none;stroke-width:0.42843747"
       transform="translate(-6.8e-4,6.34392)"
       inkscape:connector-curvature="0" />
    <path
       inkscape:connector-curvature="0"
       id="path4633"
       d="m 292.57362,139.59194 c -3.00626,0 -4.51085,3.12757 -6.61524,9.60937 l -45.8457,146.84766 c -0.45094,1.56456 -0.75,3.12769 -0.75,4.46875 0,4.2467 2.40375,7.59961 5.10938,7.59961 3.15658,0 4.66109,-3.35195 6.46484,-9.38672 l 46.14453,-147.74024 c 0.45094,-1.34106 0.75195,-2.68237 0.75195,-4.02343 0,-4.24669 -2.55413,-7.375 -5.25976,-7.375 z m -83.96094,34.19726 c -1.65345,0 -3.45632,0.89357 -5.86133,2.68164 L 144.42909,216.256 c -4.96033,3.35265 -7.51563,4.69265 -7.51563,10.50391 0,5.81127 2.85593,7.3767 7.51563,10.50585 l 58.32226,40.45508 c 2.40501,1.56458 4.05757,2.68164 5.86133,2.68164 3.00625,0 4.81055,-2.68105 4.81055,-6.92773 0,-4.47021 -2.10358,-7.15382 -6.01172,-9.83594 l -51.85742,-36.6543 51.85742,-36.65625 c 3.90814,-2.68212 6.01172,-5.14113 6.01172,-9.61132 0,-4.2467 -1.8043,-6.92774 -4.81055,-6.92774 z m 117.71485,0 c -3.00626,0 -4.81055,2.68104 -4.81055,6.92774 0,4.47019 2.25592,6.9292 6.16406,9.61132 l 51.70703,36.87891 -51.70703,36.43164 c -3.90814,2.68212 -6.16406,5.36573 -6.16406,9.83594 0,4.24668 1.80429,6.92773 4.81055,6.92773 1.65344,0 3.45632,-0.89355 5.86132,-2.68164 l 58.32227,-39.78515 c 4.96032,-3.35265 7.51562,-4.69459 7.51562,-10.50586 0,-5.81125 -2.85592,-7.37478 -7.51562,-10.50391 l -58.32227,-40.45508 c -2.405,-1.56457 -4.05757,-2.68164 -5.86132,-2.68164 z"
       style="font-style:italic;font-variant:normal;font-weight:normal;font-stretch:normal;font-size:183.29333496px;line-height:1.25;font-family:'Courier 10 Pitch';-inkscape-font-specification:'Courier 10 Pitch, Italic';font-variant-ligatures:normal;font-variant-caps:normal;font-variant-numeric:normal;font-feature-settings:normal;text-align:start;letter-spacing:0px;word-spacing:2.8748157px;writing-mode:lr-tb;text-anchor:start;fill:#ffffff;fill-opacity:1;stroke:none;stroke-width:0.42843747" />
  </g>
</svg>
